<?xml version="1.0" standalone="no"?>
<!DOCTYPE svg PUBLIC "-//W3C//DTD SVG 20010904//EN"
 "http://www.w3.org/TR/2001/REC-SVG-20010904/DTD/svg10.dtd">
<svg version="1.0" xmlns="http://www.w3.org/2000/svg"
 width="240.000000pt" height="240.000000pt" viewBox="0 0 240.000000 240.000000"
 preserveAspectRatio="xMidYMid meet">

<g transform="translate(0.000000,240.000000) scale(0.100000,-0.100000)"
fill="#000000" stroke="none">
<path d="M690 2281 c-102 -60 -236 -138 -299 -175 -62 -36 -115 -66 -117 -66
-3 0 -22 -11 -44 -25 l-40 -25 2 -402 3 -402 120 -69 c66 -38 134 -77 150 -87
17 -10 73 -42 125 -72 52 -30 107 -62 123 -72 l27 -18 0 103 -1 104 -187 107
-187 107 5 306 5 306 50 28 c114 64 441 254 452 263 7 5 16 8 20 5 4 -3 7 39
5 94 -2 68 -7 99 -15 98 -7 0 -95 -49 -197 -108z"/>
<path d="M910 2293 c0 -49 4 -93 8 -98 8 -12 112 -76 127 -79 6 -2 33 -17 60
-34 28 -18 54 -32 59 -31 5 0 12 -4 15 -9 6 -10 67 -43 76 -42 3 1 20 -10 36
-24 17 -15 41 -29 55 -32 13 -3 24 -9 24 -13 0 -4 11 -13 25 -19 l25 -12 0
-299 0 -300 55 -31 c30 -17 55 -34 55 -36 0 -3 -24 8 -53 25 l-52 30 -70 -41
c-98 -57 -159 -92 -237 -136 l-68 -37 0 -97 c0 -54 3 -98 8 -98 4 0 16 6 27
14 18 12 380 222 467 270 35 20 49 36 30 36 -5 0 -17 7 -28 16 -18 15 -18 15
3 5 12 -6 24 -11 27 -11 3 0 6 179 5 398 0 218 -3 391 -6 384 -3 -8 -10 -6
-21 8 -17 19 -90 64 -124 76 -10 4 -18 10 -18 15 0 5 -5 9 -10 9 -6 0 -51 25
-101 55 -50 30 -109 62 -130 72 -22 9 -39 21 -39 26 0 4 -4 5 -10 2 -5 -3 -10
-2 -10 4 0 5 -10 13 -22 17 -13 4 -26 11 -29 16 -3 5 -13 10 -21 12 -8 1 -23
9 -32 18 -9 9 -32 22 -51 29 -19 7 -35 17 -35 21 0 4 -4 8 -10 8 -6 0 -10 -36
-10 -87z m650 -318 c0 -2 -10 -10 -22 -16 -21 -11 -22 -11 -9 4 13 16 31 23
31 12z m-105 -65 c-3 -5 -12 -10 -18 -10 -7 0 -6 4 3 10 19 12 23 12 15 0z"/>
<path d="M1073 1367 l-262 -152 -1 -406 0 -407 78 -44 c42 -24 196 -113 342
-198 146 -84 270 -153 275 -153 6 0 114 60 240 133 127 73 281 161 343 197 61
36 112 68 112 72 0 5 -17 16 -37 25 -21 9 -49 26 -63 37 -14 11 -1 7 31 -10
31 -17 59 -31 62 -31 12 0 8 790 -3 791 -5 1 -13 2 -17 3 -5 0 -24 13 -44 29
-20 15 -41 27 -46 27 -6 0 -35 16 -64 36 -30 20 -72 45 -94 56 -22 11 -62 32
-90 48 -27 16 -57 33 -65 37 -8 4 -21 13 -28 20 -8 7 -18 11 -23 7 -5 -3 -12
1 -15 10 -3 8 -11 16 -17 19 -9 3 -12 -23 -12 -94 l0 -99 35 -17 c19 -10 37
-21 38 -25 2 -5 8 -8 13 -8 5 0 27 -11 48 -24 21 -14 42 -22 45 -19 3 4 6 1 6
-4 0 -6 22 -22 49 -35 26 -14 62 -34 79 -46 16 -12 35 -22 41 -22 8 0 11 -90
11 -301 0 -276 2 -303 18 -315 15 -12 15 -13 -5 -7 -21 5 -99 -37 -457 -246
l-88 -52 -37 22 c-59 36 -189 111 -331 191 -19 11 -63 37 -97 56 l-63 36 0
306 0 305 185 105 185 105 0 98 c0 53 -3 97 -7 96 -5 0 -126 -69 -270 -152z
m1112 -167 c-3 -5 -16 -15 -28 -21 -19 -9 -19 -8 3 10 28 23 34 26 25 11z
m-75 -45 c0 -2 -15 -12 -32 -20 l-33 -16 25 20 c24 20 40 26 40 16z"/>
</g>
</svg>
